<svg width="316" height="50" viewBox="0 0 316 50" fill="none" xmlns="http://www.w3.org/2000/svg">
<g clip-path="url(#clip0_268_158)">
<path d="M21.816 11.44C22.728 11.44 23.472 11.74 24.048 12.34C24.648 12.94 24.948 13.72 24.948 14.68V33.94C24.948 34.924 24.66 35.716 24.084 36.316C23.508 36.916 22.764 37.216 21.852 37.216C20.772 37.216 19.956 36.856 19.404 36.136L8.46 22.492V33.94C8.46 34.924 8.184 35.716 7.632 36.316C7.08 36.916 6.336 37.216 5.4 37.216C4.488 37.216 3.744 36.916 3.168 36.316C2.592 35.716 2.304 34.924 2.304 33.94V14.68C2.304 13.72 2.592 12.94 3.168 12.34C3.744 11.74 4.488 11.44 5.4 11.44C6.432 11.44 7.236 11.8 7.812 12.52L18.756 26.128V14.68C18.756 13.696 19.032 12.916 19.584 12.34C20.16 11.74 20.904 11.44 21.816 11.44ZM43.5181 31.312C44.0701 31.312 44.5141 31.528 44.8501 31.96C45.2101 32.392 45.3901 32.956 45.3901 33.652C45.3901 34.612 44.9221 35.344 43.9861 35.848C43.1701 36.256 42.1981 36.604 41.0701 36.892C39.9661 37.156 38.9461 37.288 38.0101 37.288C36.0421 37.288 34.3261 36.916 32.8621 36.172C31.3981 35.428 30.2701 34.36 29.4781 32.968C28.6861 31.576 28.2901 29.944 28.2901 28.072C28.2901 26.296 28.6621 24.712 29.4061 23.32C30.1741 21.904 31.2301 20.812 32.5741 20.044C33.9421 19.252 35.4781 18.856 37.1821 18.856C38.8381 18.856 40.2901 19.216 41.5381 19.936C42.7861 20.656 43.7461 21.676 44.4181 22.996C45.1141 24.316 45.4621 25.864 45.4621 27.64C45.4621 28.192 45.3301 28.624 45.0661 28.936C44.8261 29.224 44.4661 29.368 43.9861 29.368H34.4821C34.6501 30.52 35.0221 31.348 35.5981 31.852C36.1741 32.356 37.0261 32.608 38.1541 32.608C38.7541 32.608 39.3061 32.548 39.8101 32.428C40.3141 32.284 40.8781 32.092 41.5021 31.852C41.8621 31.708 42.2101 31.588 42.5461 31.492C42.9061 31.372 43.2301 31.312 43.5181 31.312ZM37.3621 23.176C36.5221 23.176 35.8501 23.452 35.3461 24.004C34.8421 24.532 34.5421 25.312 34.4461 26.344H40.0981C39.9541 24.232 39.0421 23.176 37.3621 23.176ZM64.762 32.356C65.362 32.956 65.662 33.64 65.662 34.408C65.662 35.152 65.374 35.812 64.798 36.388C64.222 36.964 63.55 37.252 62.782 37.252C61.99 37.252 61.282 36.928 60.658 36.28L56.446 31.888L52.27 36.28C51.646 36.928 50.938 37.252 50.146 37.252C49.378 37.252 48.706 36.964 48.13 36.388C47.554 35.812 47.266 35.152 47.266 34.408C47.266 33.64 47.566 32.956 48.166 32.356L52.63 27.892L48.526 23.86C47.926 23.26 47.626 22.576 47.626 21.808C47.626 21.04 47.902 20.368 48.454 19.792C49.03 19.216 49.702 18.928 50.47 18.928C51.286 18.928 51.994 19.264 52.594 19.936L56.446 23.86L60.334 19.936C60.958 19.288 61.666 18.964 62.458 18.964C63.226 18.964 63.886 19.252 64.438 19.828C65.014 20.38 65.302 21.028 65.302 21.772C65.302 22.54 65.002 23.236 64.402 23.86L60.298 27.892L64.762 32.356ZM78.6878 32.644C80.2958 32.74 81.0998 33.46 81.0998 34.804C81.0998 35.644 80.7758 36.268 80.1278 36.676C79.4798 37.084 78.5558 37.252 77.3558 37.18L76.3478 37.108C74.1878 36.94 72.5438 36.292 71.4158 35.164C70.3118 34.012 69.7598 32.416 69.7598 30.376V24.004H68.7158C66.7958 24.004 65.8358 23.212 65.8358 21.628C65.8358 20.068 66.7958 19.288 68.7158 19.288H69.7598V16.948C69.7598 16.036 70.0478 15.316 70.6238 14.788C71.1998 14.236 71.9798 13.96 72.9638 13.96C73.9478 13.96 74.7278 14.236 75.3038 14.788C75.8798 15.316 76.1678 16.036 76.1678 16.948V19.288H78.1478C80.0678 19.288 81.0278 20.068 81.0278 21.628C81.0278 23.212 80.0678 24.004 78.1478 24.004H76.1678V30.916C76.1678 31.372 76.2998 31.756 76.5638 32.068C76.8518 32.38 77.2118 32.548 77.6438 32.572L78.6878 32.644Z" fill="white"/>
<path fill-rule="evenodd" clip-rule="evenodd" d="M312.485 28.1421L304 36.6274L301.172 33.799L307.172 27.799L286.828 27.799V23.799H308.142L301.172 16.8284L304 14L312.485 22.4853L315.314 25.3137L312.485 28.1421Z" fill="white"/>
</g>
<defs>
<clipPath id="clip0_268_158">
<rect width="316" height="50" fill="white"/>
</clipPath>
</defs>
</svg>
